<?xml version="1.0" encoding="utf-8"?>
<!-- Generator: Adobe Illustrator 16.0.0, SVG Export Plug-In . SVG Version: 6.00 Build 0)  -->
<!DOCTYPE svg PUBLIC "-//W3C//DTD SVG 1.1//EN" "http://www.w3.org/Graphics/SVG/1.1/DTD/svg11.dtd">
<svg version="1.1" id="Camada_1" xmlns="http://www.w3.org/2000/svg" xmlns:xlink="http://www.w3.org/1999/xlink" x="0px" y="0px"
	 width="72.167px" height="75px" viewBox="0 0 72.167 75" enable-background="new 0 0 72.167 75" xml:space="preserve">
<g>
	<rect fill="#E7604A" width="72.333" height="75"/>
	<g>
		<path opacity="0.15" d="M72.002,46.006L49.318,8.804L28.537,8.169l-0.083,18.144l-3.37-7.663l-2.279,33.023
			c0,0,3.508,11.385,15.082,23.327h34.279V46.3L72.002,46.006z"/>
		<g id="Layer_8">
			<path fill="#FFFFFF" d="M22.651,49.969V19.127c0-0.675,0.545-1.221,1.22-1.221s1.22,0.546,1.22,1.221v30.842
				c0,7.231,11.22,12.987,11.334,13.039c1.761-0.837,10.758-6.479,10.758-13.039V9.96L30.025,9.898l0.002,34.236
				c0,2.428,2.209,5.803,5.61,7.317c0.597-0.271,5.039-3.345,5.039-7.317V16.729c0-0.673,0.547-1.221,1.221-1.221
				s1.22,0.548,1.22,1.221v27.405c0,5.418-5.476,9.093-6.484,9.545c-0.632,0.283-1.358,0.283-1.992,0.001
				c-0.071-0.032-7.054-3.635-7.054-9.546V9.898c0-0.645,0.26-1.276,0.717-1.729c0.459-0.46,1.071-0.713,1.721-0.713l17.164,0.066
				c1.343,0.004,2.434,1.098,2.434,2.438v40.009c0,8.912-12.083,15.21-12.204,15.265c-0.634,0.281-1.359,0.281-1.992,0
				C35.295,65.177,22.651,58.95,22.651,49.969z"/>
		</g>
	</g>
</g>
</svg>
