<?xml version="1.0" encoding="utf-8"?>
<!-- Generator: Adobe Illustrator 16.0.0, SVG Export Plug-In . SVG Version: 6.00 Build 0)  -->
<!DOCTYPE svg PUBLIC "-//W3C//DTD SVG 1.1//EN" "http://www.w3.org/Graphics/SVG/1.1/DTD/svg11.dtd">
<svg version="1.1" id="Camada_1" xmlns="http://www.w3.org/2000/svg" xmlns:xlink="http://www.w3.org/1999/xlink" x="0px" y="0px"
	 width="93.398px" height="135.5px" viewBox="0 0 93.398 135.5" enable-background="new 0 0 93.398 135.5" xml:space="preserve">
<g>
	<path fill="#FFFFFF" d="M7.122,126.484c-2.264,0-4.017-0.696-5.258-2.091C0.621,123,0,121.028,0,118.479
		c0-2.617,0.631-4.639,1.891-6.064c1.261-1.429,3.057-2.142,5.388-2.142c0.751,0,1.503,0.081,2.255,0.242
		c0.751,0.162,1.342,0.353,1.769,0.57l-0.728,2.014c-0.523-0.21-1.094-0.384-1.712-0.521c-0.619-0.138-1.166-0.207-1.642-0.207
		c-3.177,0-4.767,2.026-4.767,6.079c0,1.922,0.389,3.396,1.164,4.424c0.776,1.027,1.924,1.542,3.446,1.542
		c1.304,0,2.64-0.281,4.01-0.843v2.098C10.028,126.213,8.71,126.484,7.122,126.484z"/>
	<path fill="#FFFFFF" d="M14.962,126.198h-2.369v-22.205h2.369V126.198z"/>
	<path fill="#FFFFFF" d="M17.593,106.318c0-0.541,0.133-0.938,0.4-1.191c0.266-0.251,0.599-0.377,0.998-0.377
		c0.381,0,0.708,0.128,0.985,0.386c0.276,0.256,0.415,0.65,0.415,1.183c0,0.534-0.139,0.931-0.415,1.192
		c-0.276,0.262-0.604,0.393-0.985,0.393c-0.399,0-0.732-0.131-0.998-0.393C17.727,107.249,17.593,106.853,17.593,106.318z
		 M20.163,126.198h-2.369v-15.641h2.369V126.198z"/>
	<path fill="#FFFFFF" d="M30.271,126.484c-1.019,0-1.948-0.188-2.79-0.563c-0.842-0.376-1.548-0.954-2.119-1.734h-0.171
		c0.115,0.914,0.171,1.779,0.171,2.598v6.436h-2.369v-22.662h1.927l0.329,2.141h0.114c0.609-0.856,1.318-1.474,2.126-1.854
		c0.809-0.381,1.737-0.571,2.783-0.571c2.074,0,3.674,0.709,4.802,2.127c1.127,1.417,1.691,3.406,1.691,5.965
		c0,2.568-0.574,4.564-1.719,5.986C33.898,125.772,32.307,126.484,30.271,126.484z M29.929,112.284
		c-1.598,0-2.754,0.442-3.468,1.328c-0.713,0.885-1.08,2.293-1.099,4.224v0.528c0,2.197,0.366,3.77,1.099,4.717
		c0.733,0.946,1.908,1.42,3.524,1.42c1.352,0,2.41-0.548,3.176-1.643c0.765-1.094,1.148-2.601,1.148-4.522
		c0-1.95-0.383-3.447-1.148-4.489C32.395,112.806,31.318,112.284,29.929,112.284z"/>
	<path fill="#FFFFFF" d="M51.198,126.198l-3.396-10.374c-0.219-0.704-0.499-1.737-0.842-3.098h-0.085l-0.299,1.057l-0.642,2.069
		l-3.454,10.346H41.08l-4.438-15.512h1.513l2.483,8.99c0.58,2.227,0.96,3.863,1.142,4.909h0.085c0.562-2.227,0.97-3.705,1.228-4.438
		l3.196-9.461h1.284l3.041,9.433c0.685,2.235,1.104,3.715,1.256,4.438h0.084c0.077-0.619,0.458-2.273,1.142-4.966l2.37-8.905h1.427
		l-4.21,15.512H51.198z"/>
	<path fill="#FFFFFF" d="M70.568,118.421c0,2.53-0.612,4.508-1.84,5.93c-1.227,1.422-2.921,2.134-5.081,2.134
		c-1.361,0-2.56-0.329-3.596-0.986c-1.037-0.655-1.832-1.598-2.383-2.824c-0.551-1.228-0.827-2.645-0.827-4.253
		c0-2.53,0.613-4.503,1.841-5.916c1.227-1.412,2.911-2.118,5.051-2.118c2.13,0,3.802,0.716,5.016,2.147
		C69.963,113.967,70.568,115.928,70.568,118.421z M58.325,118.421c0,2.132,0.468,3.794,1.405,4.988
		c0.938,1.193,2.262,1.791,3.975,1.791s3.036-0.598,3.974-1.791c0.938-1.194,1.406-2.856,1.406-4.988c0-2.141-0.473-3.801-1.42-4.98
		c-0.946-1.179-2.276-1.77-3.989-1.77c-1.712,0-3.032,0.588-3.96,1.762C58.789,114.608,58.325,116.271,58.325,118.421z"/>
	<path fill="#FFFFFF" d="M78.78,110.387c0.656,0,1.361,0.066,2.115,0.199l-0.273,1.356c-0.646-0.161-1.318-0.243-2.012-0.243
		c-1.323,0-2.407,0.563-3.253,1.685c-0.847,1.122-1.27,2.54-1.27,4.252v8.563h-1.414v-15.512h1.198l0.143,2.797h0.101
		c0.639-1.143,1.318-1.943,2.04-2.404C76.878,110.617,77.753,110.387,78.78,110.387z"/>
	<path fill="#FFFFFF" d="M83.24,119.392l7.92-8.705h1.711l-6.107,6.622l6.635,8.89h-1.697l-5.895-7.834l-2.539,2.312v5.522h-1.414
		v-22.205h1.414v11.131l-0.1,4.268H83.24z"/>
</g>
<g>
	<rect x="4.849" y="3.5" fill="#E7604A" width="82.872" height="85.927"/>
	<g>
		<path opacity="0.15" d="M87.542,56.209l-26.09-42.622l-23.858-0.728l-0.12,20.788l-3.874-8.78l-2.617,38.121
			c0,0,4.013,13.265,17.272,27.013h39.676V56.546L87.542,56.209z"/>
		<g id="Layer_8">
			<path fill="#FFFFFF" d="M30.799,60.749V25.414c0-0.773,0.625-1.399,1.397-1.399c0.773,0,1.397,0.626,1.397,1.399v35.335
				c0,8.285,12.854,14.88,12.985,14.938c2.018-0.959,12.325-7.422,12.325-14.938V14.911L39.249,14.84l0.002,39.224
				c0,2.782,2.531,6.648,6.428,8.384c0.684-0.31,5.773-3.832,5.773-8.384V22.666c0-0.77,0.625-1.399,1.397-1.399
				c0.773,0,1.397,0.629,1.397,1.399v31.397c0,6.208-6.273,10.418-7.428,10.936c-0.725,0.325-1.557,0.325-2.283,0.002
				c-0.082-0.037-8.081-4.165-8.081-10.938V14.84c0-0.739,0.297-1.461,0.821-1.981c0.527-0.527,1.228-0.816,1.973-0.816
				l19.664,0.075c1.539,0.005,2.788,1.258,2.788,2.793v45.838c0,10.211-13.842,17.426-13.982,17.488
				c-0.726,0.322-1.558,0.322-2.281,0C45.286,78.173,30.799,71.039,30.799,60.749z"/>
		</g>
	</g>
</g>
</svg>
